<svg width="90" height="103" viewBox="0 0 90 103" fill="none" xmlns="http://www.w3.org/2000/svg">
<path d="M0 0H44.6465V102.129L8.09217 91.5253L0 0Z" fill="#254DE3"/>
<path d="M89.2925 0H44.646V102.129L81.2003 91.5253L89.2925 0Z" fill="#254DE3"/>
<path fill-rule="evenodd" clip-rule="evenodd" d="M44.2422 18.9746H16.1856L21.2709 76.4905L44.2411 83.1536V83.1541L44.2419 83.1538L44.2422 83.1539V83.1538L67.2124 76.4907L72.2976 18.9748H44.2422V18.9746Z" fill="#254DE3"/>
<path fill-rule="evenodd" clip-rule="evenodd" d="M16.3654 18.9746H44.4219V53.5757H19.4246L16.3654 18.9746ZM19.8687 58.5984H30.6366L31.4384 67.6677L44.4219 71.4339V83.1539L21.4507 76.4905L19.8687 58.5984ZM44.4228 53.5757H53.5748L58.6522 53.5757L57.4063 67.6677L44.4228 71.4339V83.1541L67.3941 76.4907L72.4794 18.9748H44.4228V53.5757Z" fill="#EBEBEB"/>
<path fill-rule="evenodd" clip-rule="evenodd" d="M59.2828 41.8564H44.4224V30.6948H60.2697L59.2828 41.8564ZM44.4215 30.6948V41.8564H18.3881L17.4012 30.6948H44.4215Z" fill="#254DE3"/>
<g style="mix-blend-mode:screen" opacity="0.8">
<path d="M89.2925 0H44.646V102.129L81.2003 91.5253L89.2925 0Z" fill="#254DE3"/>
</g>
</svg>
