<svg width="21" height="21" viewBox="0 0 21 21" fill="none" xmlns="http://www.w3.org/2000/svg">
<path d="M14.2428 19.5134V17.0036C14.2756 16.5866 14.2193 16.1674 14.0775 15.7739C13.9358 15.3803 13.7119 15.0214 13.4208 14.7211C16.1667 14.4151 19.0526 13.3744 19.0526 8.59965C19.0523 7.3787 18.5827 6.20458 17.7408 5.32028C18.1394 4.2521 18.1112 3.07138 17.6621 2.02343C17.6621 2.02343 16.6302 1.71736 14.2428 3.31769C12.2385 2.77447 10.1257 2.77447 8.12133 3.31769C5.73395 1.71736 4.70204 2.02343 4.70204 2.02343C4.25287 3.07138 4.22469 4.2521 4.62334 5.32028C3.77518 6.21114 3.30505 7.39588 3.31159 8.62588C3.31159 13.3657 6.19742 14.4063 8.94334 14.7474C8.65563 15.0447 8.43375 15.3992 8.29212 15.7879C8.15049 16.1767 8.09229 16.5909 8.12133 17.0036V19.5134" stroke="#4d4d4d" stroke-width="1.9" stroke-linecap="round" stroke-linejoin="round"/>
<path d="M8.12148 17.7641C5.49799 18.6152 3.31175 17.7641 2 15.1406" stroke="#4d4d4d" stroke-width="1.9" stroke-linecap="round" stroke-linejoin="round"/>
</svg>
