<svg width="21" height="21" viewBox="0 0 21 21" fill="none" xmlns="http://www.w3.org/2000/svg">
<path d="M5.77778 14.5V8.61111M19 6.72222V14.2778C19 15.5302 18.5025 16.7313 17.6169 17.6169C16.7313 18.5025 15.5302 19 14.2778 19H6.72222C5.46981 19 4.2687 18.5025 3.38311 17.6169C2.49752 16.7313 2 15.5302 2 14.2778V6.72222C2 5.46981 2.49752 4.2687 3.38311 3.38311C4.2687 2.49752 5.46981 2 6.72222 2H14.2778C15.5302 2 16.7313 2.49752 17.6169 3.38311C18.5025 4.2687 19 5.46981 19 6.72222Z" stroke="#4d4d4d" stroke-width="2" stroke-linecap="round" stroke-linejoin="round"/>
<path d="M9.55561 14.5V12.1528M9.55561 12.1528V8.61113M9.55561 12.1528C9.55561 8.61113 15.2223 8.61113 15.2223 12.1528V14.5M5.77783 5.78724L5.78728 5.77686" stroke="#4d4d4d" stroke-width="2" stroke-linecap="round" stroke-linejoin="round"/>
</svg>
