<svg width="122" height="122" viewBox="0 0 122 122" fill="none" xmlns="http://www.w3.org/2000/svg">
<g clip-path="url(#clip0_58_10)">
<path d="M122 61C122 27.3106 94.6894 0 61 0C27.3106 0 0 27.3106 0 61C0 94.6894 27.3106 122 61 122C94.6894 122 122 94.6894 122 61Z" fill="white"/>
<path fill-rule="evenodd" clip-rule="evenodd" d="M21.9523 77.6392C20.8192 76.6938 41.4042 34.2028 41.4042 34.2028C41.4042 34.2028 50.658 14.3737 56.5125 15.1295C62.367 15.8852 66.7107 42.1357 66.7107 42.1357L68.024 50.6108C74.9931 48.913 86.6258 48.3668 95.4169 59.5103C108.826 76.5069 91.6398 95.3927 91.6398 95.3927C72.9432 114.467 51.9804 102.569 51.9804 102.003C51.9804 101.904 52.4748 101.949 53.3371 102.027C57.4171 102.398 69.7376 103.516 76.9092 93.6938C85.5965 81.7952 84.6428 67.7807 74.2652 60.4546C73.0445 59.5931 71.5797 58.8977 70.115 58.3444C70.9369 62.1199 71.3943 67.6428 70.5463 75.481C68.5123 94.2845 51.1022 86.5475 48.8571 85.2829C46.612 84.0187 36.8672 78.0513 45.4358 65.5537C50.8873 57.6025 58.1722 53.9588 62.7515 52.3603C62.9849 52.2587 63.2694 52.1394 63.5999 52.009C62.4089 48.198 59.7147 42.4772 54.0574 41.0015C47.9215 39.4007 35.0012 58.8123 27.5427 70.0178C24.4419 74.6765 22.2851 77.9169 21.9523 77.6392ZM65.4544 56.2787C65.4544 56.2787 53.6952 58.5661 47.6519 68.1977C41.6085 77.8292 49.1026 82.3406 50.4246 83.096C51.7466 83.8514 64.0546 89.3701 65.4544 74.0521C66.8546 58.7338 65.4544 56.2787 65.4544 56.2787Z" fill="#333232"/>
</g>
<defs>
<clipPath id="clip0_58_10">
<rect width="122" height="122" fill="white"/>
</clipPath>
</defs>
</svg>
